# xmcd CD database file
#
# Track frame offsets:
#	150
#	19025
#	44796
#	67490
#	93414
#	110905
#	131254
#	161086
#	180598
#	202138
#
# Disc length: 3034 seconds
#
# Revision: 0
# Processed by: cddbd v1.5.2PL0 Copyright (c) Steve Scherf et al.
# Submitted via: CDex 1.51
#
DISCID=990bd80a
DTITLE=trontheim - stay tuned
DYEAR=1900
DGENRE=Jazz
TTITLE0=01 little girl in bloom
TTITLE1=02 sinking slowly
TTITLE2=03 silly things
TTITLE3=04 try flying
TTITLE4=05 over and over
TTITLE5=06 ghost hand
TTITLE6=07 little house
TTITLE7=08 water me
TTITLE8=09 frost flower
TTITLE9=10 stay tuned
EXTD=
EXTT0=
EXTT1=
EXTT2=
EXTT3=
EXTT4=
EXTT5=
EXTT6=
EXTT7=
EXTT8=
EXTT9=
PLAYORDER=
